Simulation
nRows=19
nColumns=15
endheader
time  TH_x TH_y TH_z SC_y  SC_z  SC_x  AC_y  AC_z  AC_x  GH_y  GH_z  GH_yy  EL_x  PS_y
0.0  0.000000  0.000000  0.000000  -29.303390105693172  0.7406606589459559  11.060960142970123  49.81065219671042  0.6923107942759158  -2.531895683098299  31.98592632487477  -0.6816383074398724  6.081653016235322  20.504133222134808  120.000000
0.02949999999999999  0.000000  0.000000  0.000000  -28.40766749660001  1.6800920594090085  11.204378404954515  49.729445494591616  0.49050057624734744  -1.9484931180981304  31.919203766585753  -0.3551689857514229  5.538070597185564  20.66200713754999  120.000000
0.05899999999999998  0.000000  0.000000  0.000000  -27.739158896546623  2.444116544734106  11.278252213688287  49.6049541661102  0.2154651508528519  -1.5325114749957445  31.882413553168426  -0.09531985184680078  5.037389841662707  20.7293806051789  120.000000
0.08849999999999997  0.000000  0.000000  0.000000  -27.32724348593917  2.9696284935438015  11.292061081097431  49.43580249648429  -0.07809311178972828  -1.2785069110355  31.881745596155724  0.1499681383582246  4.600972932662775  20.678056587542713  120.000000
0.11799999999999997  0.000000  0.000000  0.000000  -27.089301374651896  3.2781994576363624  11.267595476702384  49.243404874363094  -0.3616539291571876  -1.175512555317216  31.913075105580564  0.41313235861718783  4.240507052483957  20.505202407173588  120.000000
0.14749999999999996  0.000000  0.000000  0.000000  -26.94301192311469  3.4348722174325332  11.226667676583492  49.041834652323665  -0.6220666633144727  -1.1860444766201268  31.959664743889487  0.7135458444846274  3.954832977960835  20.22033685511123  120.000000
0.17699999999999994  0.000000  0.000000  0.000000  -26.83101883051652  3.497295959699789  11.186384189141403  48.83579976940484  -0.8521410658493502  -1.272486048207751  31.98592631650461  1.0650919055222885  3.722407885862651  19.839801785311632  120.000000
0.20649999999999993  0.000000  0.000000  0.000000  -26.724470300744162  3.5138322233027366  11.15928615288695  48.631492654169264  -1.051471890020028  -1.4022447228487653  31.955649654707123  1.4812024244609672  3.521410091831095  19.3828617998574  120.000000
0.23599999999999993  0.000000  0.000000  0.000000  -26.614594517181544  3.51989264983845  11.15459609220675  48.43314817979308  -1.2208225868437543  -1.5531250483001402  31.832886288298976  1.9723591343959563  3.3325931497873746  18.87449438512471  120.000000
0.2654999999999999  0.000000  0.000000  0.000000  -26.504771976744472  3.5373235678308492  11.179448310747956  48.24454986181706  -1.3606219153648889  -1.7110729712554529  31.58742265515371  2.5460273293188758  3.140137313141675  18.336738904162257  120.000000
0.29499999999999993  0.000000  0.000000  0.000000  -26.40356476599537  3.577915486091372  11.239056152131125  48.069447668735954  -1.469267134166384  -1.8678160701104258  31.197685134689458  3.206260306788527  2.9299091897068474  17.792461722908072  120.000000
0.3244999999999999  0.000000  0.000000  0.000000  -26.319951513535653  3.647070949086354  11.336701493270622  47.912060650742845  -1.543926066968626  -2.018036675722337  30.649822687042487  3.954356074309722  2.68741370039043  17.2658565754434  120.000000
0.35399999999999987  0.000000  0.000000  0.000000  -26.26205301633477  3.7461268910492813  11.474123739122012  47.77646996073938  -1.5817571829545833  -2.1572856939807776  29.936119325501124  4.789366034177566  2.3954771194585307  16.782491588524813  120.000000
0.3834999999999999  0.000000  0.000000  0.000000  -26.237459325777518  3.8732589084115436  11.651722722723898  47.6665397336081  -1.5808779029633178  -2.2810609809535944  29.05419850011958  5.708959725963643  2.03329954856594  16.368658573430945  120.000000
0.41299999999999987  0.000000  0.000000  0.000000  -26.254329346642272  4.023964706011643  11.868895716670105  47.58684039222101  -1.5411240782364564  -2.384116041185207  28.008211751797656  6.70975562941557  1.5783472798429372  16.04811334380155  120.000000
0.4424999999999999  0.000000  0.000000  0.000000  -26.321231374647283  4.191182110678696  12.123512059989574  47.54540534452299  -1.463393079296262  -2.461259156444472  26.810330003453476  7.787979176339571  1.0092468884360375  15.838478773318654  120.000000
0.47199999999999986  0.000000  0.000000  0.000000  -26.44752789474591  4.364444687372698  12.412983116237701  47.552539861760444  -1.3466588183203894  -2.5088740427510325  25.483797698329003  8.9381526832397  0.3120081117070982  15.746435913859408  120.000000
0.5014999999999998  0.000000  0.000000  0.000000  -26.64207892998282  4.5285406224799525  12.735544082332579  47.617516444380406  -1.1854345498996066  -2.5288117784337936  24.064463078114937  10.15335556396031  -0.5145519303528238  15.764998570158605  120.000000
0.5309999999999998  0.000000  0.000000  0.000000  -26.910022340663453  4.664218698931068  13.090087700326839  47.74501397529706  -0.9678390458871017  -2.5318956805464343  22.600817649237893  11.42544927764182  -1.4544200973494192  15.87497778322548  120.000000
